<svg xmlns="http://www.w3.org/2000/svg" width="1280" height="340" viewBox="0 0 1280 340" role="img" aria-label="Open Career Skills: seven Claude skills and an /apply pipeline that refuse to invent facts about you">
  <defs>
    <linearGradient id="bg" x1="0" y1="0" x2="1" y2="1">
      <stop offset="0" stop-color="#171532"/>
      <stop offset="0.55" stop-color="#1e1b4b"/>
      <stop offset="1" stop-color="#312e81"/>
    </linearGradient>
    <radialGradient id="glow" cx="0.82" cy="0.15" r="0.8">
      <stop offset="0" stop-color="#818cf8" stop-opacity="0.28"/>
      <stop offset="0.5" stop-color="#6366f1" stop-opacity="0.10"/>
      <stop offset="1" stop-color="#6366f1" stop-opacity="0"/>
    </radialGradient>
    <linearGradient id="accent" x1="0" y1="0" x2="1" y2="0">
      <stop offset="0" stop-color="#818cf8"/>
      <stop offset="1" stop-color="#34d399"/>
    </linearGradient>
  </defs>

  <rect width="1280" height="340" rx="14" fill="url(#bg)"/>
  <rect width="1280" height="340" rx="14" fill="url(#glow)"/>

  <!-- faint grid -->
  <g stroke="#818cf8" stroke-opacity="0.06" stroke-width="1">
    <path d="M160 0V340M320 0V340M480 0V340M640 0V340M800 0V340M960 0V340M1120 0V340"/>
    <path d="M0 85H1280M0 170H1280M0 255H1280"/>
  </g>

  <!-- terminal vignette: the /apply pipeline moment -->
  <g transform="translate(872,58)">
    <rect width="344" height="224" rx="12" fill="#0f0e24" stroke="#4338ca" stroke-opacity="0.55"/>
    <circle cx="24" cy="22" r="5" fill="#f87171"/>
    <circle cx="42" cy="22" r="5" fill="#fbbf24"/>
    <circle cx="60" cy="22" r="5" fill="#34d399"/>
    <g font-family="ui-monospace, SFMono-Regular, Menlo, Consolas, monospace" font-size="14.5">
      <text x="24" y="58" fill="#a5b4fc">&gt; /apply &lt;job-url&gt;</text>
      <text x="24" y="86" fill="#e2e8f0">Fit 65: Good Fit. 2 honest gaps.</text>
      <text x="24" y="120" fill="#fbbf24">Reviewer: "over 70%" is not</text>
      <text x="24" y="142" fill="#fbbf24">your 73%. Restored.</text>
      <text x="24" y="176" fill="#e2e8f0">Tracked in your pipeline.</text>
      <text x="24" y="204" fill="#34d399">no inventing. ever.</text>
    </g>
  </g>

  <!-- title block -->
  <g font-family="-apple-system, 'Segoe UI', Helvetica, Arial, sans-serif">
    <text x="72" y="104" font-size="56" font-weight="800" fill="#f8fafc" letter-spacing="-1">Open Career Skills</text>
    <rect x="74" y="124" width="150" height="5" rx="2.5" fill="url(#accent)"/>
    <text x="72" y="168" font-size="24" fill="#c7d2fe">Claude skills for the job hunt that refuse to invent facts about you.</text>

    <!-- skill chips, row 1 -->
    <g font-size="15" font-weight="600">
      <rect x="72" y="196" width="132" height="34" rx="17" fill="#312e81" stroke="#6366f1" stroke-opacity="0.6"/>
      <text x="138" y="218" text-anchor="middle" fill="#e0e7ff">cv-optimizer</text>
      <rect x="214" y="196" width="146" height="34" rx="17" fill="#312e81" stroke="#6366f1" stroke-opacity="0.6"/>
      <text x="287" y="218" text-anchor="middle" fill="#e0e7ff">story-extractor</text>
      <rect x="370" y="196" width="156" height="34" rx="17" fill="#312e81" stroke="#6366f1" stroke-opacity="0.6"/>
      <text x="448" y="218" text-anchor="middle" fill="#e0e7ff">360brew-planner</text>
      <rect x="536" y="196" width="124" height="34" rx="17" fill="#312e81" stroke="#6366f1" stroke-opacity="0.6"/>
      <text x="598" y="218" text-anchor="middle" fill="#e0e7ff">cover-letter</text>
      <rect x="670" y="196" width="152" height="34" rx="17" fill="#312e81" stroke="#6366f1" stroke-opacity="0.6"/>
      <text x="746" y="218" text-anchor="middle" fill="#e0e7ff">mock-interviewer</text>
    </g>

    <!-- skill chips, row 2 -->
    <g font-size="15" font-weight="600">
      <rect x="72" y="240" width="112" height="34" rx="17" fill="#312e81" stroke="#6366f1" stroke-opacity="0.6"/>
      <text x="128" y="262" text-anchor="middle" fill="#e0e7ff">job-search</text>
      <rect x="194" y="240" width="142" height="34" rx="17" fill="#312e81" stroke="#6366f1" stroke-opacity="0.6"/>
      <text x="265" y="262" text-anchor="middle" fill="#e0e7ff">evidence-miner</text>
      <rect x="346" y="240" width="192" height="34" rx="17" fill="#1d1a45" stroke="url(#accent)" stroke-width="1.5"/>
      <text x="442" y="262" text-anchor="middle" fill="#a7f3d0">+ the /apply pipeline</text>
    </g>

    <text x="72" y="312" font-size="16" fill="#818cf8">MIT licensed · runs locally in Claude Code &amp; Claude Desktop · your data stays in your files</text>
  </g>
</svg>
